<svg xmlns="http://www.w3.org/2000/svg" viewBox="0 0 798 124">
<g data-name="Freie Hochschule Stuttgart - graphicfactory">
<path fill="#9d9d9d" d="M102.07 57.79c-.12-.38-.3-.47-.38-.48-10.5 18.29-34.51 38.81-66.87 38.05-8.08-.44-19.9-2.67-20.43-12a.41.41 0 010 .11 25.87 25.87 0 00.31 4.88c.08.61.2 1.23.34 1.85 0 .2.09.38.14.57s.07.33.11.5a17.78 17.78 0 00.76 2.27s0 .11.07.16a1.8 1.8 0 00.08.21 23.45 23.45 0 003.56 5.93 28.21 28.21 0 003.16 3.26c10.39 9.18 22.47 17.23 36.32 19.4 9.82 1.54 40-22.55 43.21-53.91a25.8 25.8 0 00-.38-10.85"/>
<path fill="#c6c6c6" d="M16.12 93.75a1.11 1.11 0 00-.07-.16 16.32 16.32 0 01-.75-2.27c-.05-.17-.08-.33-.12-.5s-.1-.37-.14-.57c-.15-.62-.25-1.23-.34-1.85a24.3 24.3 0 01-.3-4.88v-.14c.33-8.59 5.22-16.88 16.72-24.83C37.79 54 45.51 49 52.5 43.57c-8.33-5.22-18.11-6.84-18.23-8.23-.14-1.59 17.62-8.19 34.48-8.15 4.7-7.28 6.24-15.23 1.86-24s-56.87 15.61-67.37 43c-5.8 15.14-1.33 29.74 9.46 45.53a107.85 107.85 0 007.06 8.17A23 23 0 0116.2 94a1.67 1.67 0 01-.08-.2"/>
<path fill="#7b7b7b" d="M150.8 117c.09-.86.14-1.69.2-2.55l.3-.11a7.68 7.68 0 004.88 1.61 6.44 6.44 0 001.55-.17 3.1 3.1 0 002.49-2.94 2.59 2.59 0 00-1-2.16 7.51 7.51 0 00-2.41-1.22l-1.39-.61c-.47-.22-.94-.44-1.41-.69a5.35 5.35 0 01-3.19-4.79 4.93 4.93 0 011.8-3.88 7.22 7.22 0 014.89-1.49 13.17 13.17 0 015 .91l.17.2c-.11.8-.17 1.63-.22 2.43l-.25.14a8.8 8.8 0 00-4.57-1.3 6 6 0 00-1.52.19 2.67 2.67 0 00-2.22 2.53 2.24 2.24 0 00.75 1.69 9.77 9.77 0 002.8 1.49l1.41.61c.47.2.94.42 1.38.64a5.23 5.23 0 013.3 5 5.32 5.32 0 01-1.53 3.85 7.45 7.45 0 01-5.59 2 13.54 13.54 0 01-4.6-.83c-.3-.11-.58-.25-.88-.39zm34.7 1c-3.82 0-7.64 0-11.49.08l-.14-.2c.14-2.93.14-5.87.14-8.81 0-3.49 0-7-.19-10.44l.19-.2 11.63-.08.14.19-.17 2.17-.19.19c-2.77-.08-5.51-.14-8.28-.14q-.09 3-.06 5.9h4l3.84-.08.17.19c-.08.72-.14 1.45-.17 2.17l-.16.19q-3.82-.09-7.65-.09-.08 3.3 0 6.63h5.18l3.44-.11.14.22c-.06.67-.09 1.36-.11 2zm30.99 0c-1 0-2 0-3 .08l-.17-.2c0-2.38 0-4.76-.05-7.14l-.08-3c0-2.41-.06-4.82 0-7.23-.28 1-.55 2-.86 3.05-.36 1.3-.77 2.6-1.16 3.88l-1.28 4c-.69 2.08-1.35 4.19-2 6.29l-.17.2c-1.08 0-2.16 0-3.21.08l-.16-.2c-.7-2.46-1.45-4.87-2.14-7.31l-1.11-3.85c-.38-1.39-.8-2.77-1.13-4.18-.17-.67-.33-1.34-.47-2 0 2.05-.06 4.07-.14 6.12l-.2 5c-.05 2.05-.1 4.1-.13 6.15l-.14.2c-.89 0-1.77 0-2.66.08l-.14-.2c.17-1.74.31-3.49.42-5.26s.19-3.52.27-5.29c.11-2.19.28-4.41.34-6.6v-2.1l.17-.2c1.41 0 2.85 0 4.26-.08l.2.19c.44 1.92 1 3.83 1.49 5.69l3.05 11.22 3.52-11.56c.52-1.74 1.11-3.49 1.58-5.26l.19-.2 4.15-.08.17.19c.14 6.43.36 12.83.72 19.26zm14.93 0c-1 0-2 0-3.08.08l-.17-.2c.12-2.18.14-4.34.14-6.51 0-3 0-6-.08-9 0-1.25-.06-2.47-.14-3.71l.17-.2c1 0 2.05 0 3.07-.11l.17.22c-.08 3.3-.14 6.63-.14 10 0 2 0 3.93.08 5.87 0 1.14.09 2.27.17 3.41zm27.44 0c-1.13 0-2.27 0-3.41.08l-.22-.2c-1.61-2.93-3.27-5.81-4.93-8.72l-4.37-7.82.27 9.51c.09 2.32.14 4.62.25 7l-.16.2c-.89 0-1.78 0-2.66.08l-.17-.2c.11-2.38.14-4.79.14-7.23 0-4 0-8-.17-12l.17-.2c1.19 0 2.35 0 3.54-.08l.31.19c1.86 3.36 3.74 6.77 5.62 10.12l3.43 6-.21-9.17c-.06-2.3-.09-4.6-.26-6.9l.2-.2c.86 0 1.74 0 2.6-.08l.17.19c-.06 3.44-.09 6.93-.09 10.45 0 2.94 0 5.87.09 8.81zm26.14-.08c-1.09 0-2.16 0-3.22.08l-.19-.19c-.53-2-1.05-3.91-1.63-5.82q-3.5-.09-6.9 0c-.31 1-.58 1.91-.86 2.88s-.53 1.88-.78 2.83l-.22.19c-.94 0-1.88 0-2.82.08l-.11-.19c1.19-3.44 2.38-6.9 3.54-10.34 1-3 2-5.9 2.91-8.86l.22-.19c1.14 0 2.3 0 3.44-.09h.52l.2.19c.47 1.58.94 3.16 1.44 4.74.86 2.88 1.77 5.77 2.68 8.65.64 1.94 1.28 3.9 1.89 5.82zm-8.34-17.51l-2.91 9.33h5.57zM297.57 118c-1 0-2 0-3 .08l-.17-.2c.06-2.77.11-5.54.11-8.31 0-2.38 0-4.76-.11-7.15 0-1.27-.08-2.52-.17-3.79l.17-.19c1.16 0 2.33 0 3.46-.06h3.05c.47 0 3.82 0 5.48 2.1a5.11 5.11 0 011 3.28 5.2 5.2 0 01-.33 1.93 5.8 5.8 0 01-3 3 7.69 7.69 0 01-1.39.49c1.05 1.45 2 2.94 3.05 4.41s2 2.77 3 4.16l-.13.27c-1.14 0-2.28.06-3.41.11L305 118l-.88-1.52c-.64-1-1.33-2-2-3s-1.1-1.81-1.71-2.66c-.28-.39-.56-.81-.86-1.2h-2c0 1.58.05 3.16.08 4.74 0 1.14.06 2.25.14 3.38zm5.13-11.31a3 3 0 001.57-2.71 3.07 3.07 0 00-1.55-2.83 6.94 6.94 0 00-3.46-.53c-.61 0-1.19 0-1.77.06v6.73c1.55 0 3.76.11 5.21-.72M336.81 118c-1.05 0-2.13 0-3.18.08l-.14-.2c.19-4 .17-8 .17-12 0-2.41 0-4.82-.17-7.23l.14-.2h6.31c1.61 0 3.24 0 4.85-.06l.14.19c-.09.75-.14 1.47-.17 2.19l-.17.2c-1.44-.06-2.88-.09-4.29-.11h-3.49c0 2-.05 4.13-.05 6.2 2.3 0 4.57 0 6.86-.14l.14.2c-.05.72-.14 1.47-.19 2.19l-.17.19c-2.18 0-4.4-.08-6.59-.08-.05 1.49 0 3 0 4.54 0 1.28.06 2.58.17 3.88zm32.71-7.48v1.3a7.09 7.09 0 01-1.52 4.38c-.92 1.08-2.67 2.16-5.82 2.16a9.63 9.63 0 01-2.47-.28 6 6 0 01-4.65-3.88c-.44-1.24-.42-2.24-.42-4.7v-7.57c0-1.14-.05-2.25-.08-3.35l.2-.2c1 0 2.05 0 3.1-.08l.14.19c-.09 2.14-.09 4.27-.09 6.41v6.2c.06 1.64.28 3.38 1.89 4.3a5 5 0 002.57.63 4.53 4.53 0 003.1-1 3.71 3.71 0 00.95-1.33c.47-1.14.47-2.33.47-4.74 0-2 0-3.93-.06-5.93 0-1.47-.05-2.93-.14-4.4l.14-.2c.86 0 1.69 0 2.55-.08l.16.19c-.05 1.72-.08 3.47-.08 5.18v4.36zm-9-13.8h-2.94l-.19-.22v-2.69l.19-.19h3l.2.2c0 .88-.06 1.8 0 2.71zm6.53 0h-3l-.2-.23v-2.6l.22-.25h3l.19.17v2.74zM384.77 118c-1 0-2 0-3 .08l-.17-.2c.06-2.77.11-5.54.11-8.31 0-2.38 0-4.76-.11-7.15 0-1.27-.08-2.52-.16-3.79l.16-.19c1.17 0 2.33 0 3.46-.06h3.05c.47 0 3.82 0 5.49 2.1a5.89 5.89 0 01.66 5.21 5.8 5.8 0 01-3 3 7.69 7.69 0 01-1.39.49c1.05 1.45 2 2.94 3.05 4.41s2 2.77 3.05 4.16l-.14.27c-1.14 0-2.27.06-3.41.11l-.19-.11c-.31-.52-.58-1-.89-1.52-.64-1-1.33-2-2-3s-1.11-1.81-1.72-2.66c-.28-.39-.56-.81-.86-1.2h-2c0 1.58 0 3.16.08 4.74 0 1.14.06 2.25.14 3.38zm5.13-11.31a3 3 0 001.58-2.71 3.11 3.11 0 00-1.55-2.83 7 7 0 00-3.47-.53c-.6 0-1.19 0-1.77.06v6.73c1.55 0 3.77.11 5.21-.72m44.17 11.14c-.17-1-.31-1.91-.47-2.85s-.36-1.83-.56-2.74l-2.24-11.94-2.3 11.3c-.39 2.05-.83 4.1-1.19 6.15l-.17.2c-1.32 0-2.65 0-4 .08l-.2-.2c-.66-3.35-1.44-6.67-2.18-10-.67-3.07-1.33-6.15-2.11-9.22l.17-.2c1.05 0 2.08 0 3.13-.08l.16.19c.23 1.28.45 2.53.7 3.8.19 1 .38 2.08.58 3.13l2 10.59 2.3-12.28c.33-1.72.63-3.43.94-5.15l.17-.2c1.46 0 2.93 0 4.4-.08l.17.19c.27 2 .63 3.94 1 5.91l2.19 11.66 2.16-10.94c.42-2.19.86-4.32 1.19-6.54l.2-.2 2.68-.08.14.19a96.31 96.31 0 00-1 3.8c-.47 2-.91 4-1.35 6.07-.72 3.13-1.47 6.23-2.11 9.39l-.22.2c-1.3 0-2.63 0-4 .08zm31.82.09c-1.08 0-2.16 0-3.22.08l-.19-.19c-.53-2-1.05-3.91-1.63-5.82q-3.5-.09-6.9 0c-.3 1-.58 1.91-.86 2.88s-.52 1.88-.77 2.83l-.22.19c-1 0-1.89 0-2.83.08l-.11-.19c1.19-3.44 2.38-6.9 3.55-10.34 1-3 2-5.9 2.9-8.86l.22-.19c1.14 0 2.3 0 3.44-.09h.53l.19.19c.47 1.58.94 3.16 1.44 4.74.86 2.88 1.77 5.77 2.68 8.65.64 1.94 1.28 3.9 1.89 5.82zm-8.34-17.51l-2.91 9.33h5.57zm28 17.59c-3.52 0-7 0-10.55.08l-.17-.2c.11-3.71.14-7.39.14-11.11 0-2.71 0-5.43-.2-8.14l.2-.2c1 0 2.1 0 3.15-.08l.17.17c-.19 4.12-.25 8.17-.25 12.27 0 1.61 0 3.22.06 4.79h3.46c1.38 0 2.74-.06 4.13-.11l.16.22c-.05.69-.11 1.41-.14 2.13zm9.45-.17c.11-2.21.13-4.43.13-6.65v-6.65c0-2-.09-4-.22-6l.16-.19 4.07-.09c2.75 0 6-.19 8.45 1.41a7.53 7.53 0 011.74 1.64 9.83 9.83 0 011.83 6.31 11.6 11.6 0 01-1.74 6.43 8 8 0 01-1.75 1.89c-2.35 1.85-5.65 2-8.47 2h-4.06zm10.08-3.4a5.85 5.85 0 001.58-1.75 9.56 9.56 0 001.24-5.24 8.28 8.28 0 00-.86-4.07 5.07 5.07 0 00-3.29-2.55 10.2 10.2 0 00-2.86-.3h-2.68c-.08 3-.06 6-.06 8.93 0 2 0 4.12.09 6.17 2.21 0 4.93.14 6.84-1.24M523.4 116a6.29 6.29 0 01-.66-.78 11.07 11.07 0 01-2-6.89c0-1.17 0-6 3.71-8.7a8.7 8.7 0 015.37-1.63 8.56 8.56 0 015.24 1.58c3.71 2.66 3.71 7.62 3.71 8.75a11.73 11.73 0 01-2 6.87 7 7 0 01-1.53 1.5 8.65 8.65 0 01-5.54 1.69 8.75 8.75 0 01-6.3-2.39m9.28-.72c2.88-2 2.8-6.59 2.8-7.12a13.42 13.42 0 00-.89-4.91 5.37 5.37 0 00-9.19-.63c-1.28 1.94-1.31 5.23-1.31 5.57a11.93 11.93 0 001 5 5.37 5.37 0 007.59 2.11m19.71 2.7c-1 0-2 0-3 .08l-.17-.2c.06-2.77.11-5.54.11-8.31 0-2.38 0-4.76-.11-7.15 0-1.27-.08-2.52-.16-3.79l.16-.19c1.16 0 2.33 0 3.47-.06h3c.47 0 3.82 0 5.49 2.1a5.89 5.89 0 01.66 5.21 5.8 5.8 0 01-3 3 7.69 7.69 0 01-1.39.49c1.06 1.45 2 2.94 3 4.41s2 2.77 3 4.16l-.14.27c-1.14 0-2.27.06-3.41.11l-.19-.11c-.31-.52-.58-1-.89-1.52-.64-1-1.33-2-2-3s-1.11-1.81-1.72-2.66c-.28-.39-.56-.81-.86-1.2h-2c0 1.58 0 3.16.08 4.74 0 1.14.06 2.25.14 3.38zm5.13-11.31a3 3 0 001.58-2.71 3.09 3.09 0 00-1.56-2.83 6.94 6.94 0 00-3.46-.53c-.6 0-1.19 0-1.77.06v6.73c1.55 0 3.77.11 5.21-.72M576.54 118c-1 0-2.13 0-3.18.08l-.14-.2c.19-4 .17-8 .17-12 0-2.41 0-4.82-.17-7.23l.14-.2h6.31c1.61 0 3.24 0 4.85-.06l.14.19c-.09.75-.14 1.47-.17 2.19l-.17.2c-1.44-.06-2.88-.09-4.29-.11h-3.49v6.2c2.3 0 4.57 0 6.87-.14l.13.2c0 .72-.13 1.47-.19 2.19l-.17.19c-2.18 0-4.4-.08-6.59-.08v4.54c0 1.28.06 2.58.17 3.88zm20.72 0c-1 0-2 0-3 .08l-.17-.19c.06-2.42.08-4.83.08-7.27v-7.67c0-1.44-.11-2.88-.19-4.32l.16-.2h4.85a17.42 17.42 0 011.77 0c.72 0 3.77 0 5.51 2.25a6.14 6.14 0 011.17 3.62 5.84 5.84 0 01-2.11 4.55c-1.33 1.11-3.21 1.8-6.84 1.8h-1.16c0 1.16 0 2.36.08 3.52s.08 2.49.14 3.74zm5.92-11.06a3.5 3.5 0 001-2.74 3.38 3.38 0 00-.56-2.08c-.94-1.42-2.49-1.52-4-1.52-.84 0-1.64 0-2.44.08v7.62c3.18 0 4.73-.11 5.95-1.36m26.75 10.98c-1.08 0-2.16 0-3.21.08l-.2-.19c-.52-2-1.05-3.91-1.63-5.82q-3.5-.09-6.9 0c-.3 1-.58 1.91-.86 2.88s-.52 1.89-.77 2.83l-.22.19c-1 0-1.89 0-2.83.08l-.11-.19c1.19-3.44 2.38-6.9 3.55-10.33 1-3 2-5.91 2.9-8.87l.23-.2c1.13 0 2.3 0 3.43-.08h.53l.19.19c.47 1.58.94 3.16 1.44 4.74.86 2.88 1.77 5.77 2.69 8.65.63 1.94 1.27 3.9 1.88 5.82zm-9.83-21.2h-3l-.19-.22v-2.69l.19-.19h3l.2.19c0 .89-.06 1.8 0 2.72zm1.49 3.69l-2.91 9.33h5.57zm5.24-3.91l-.23.22c-1 0-2-.06-3-.06l-.2-.22v-2.6l.22-.25h3l.2.17zm12.1 21.33c.11-2.21.14-4.43.14-6.65v-6.65c0-2-.09-4-.22-6l.16-.19 4.04-.04c2.74 0 6-.19 8.45 1.41a7.57 7.57 0 011.75 1.64 9.88 9.88 0 011.82 6.31 11.51 11.51 0 01-1.74 6.43 8 8 0 01-1.75 1.89c-2.35 1.85-5.65 2-8.47 2h-2.16l-1.9.02zm10.08-3.4a5.85 5.85 0 001.58-1.75 9.56 9.56 0 001.24-5.24 8.28 8.28 0 00-.86-4.07 5.07 5.07 0 00-3.29-2.55 10.17 10.17 0 00-2.85-.3h-2.69c-.08 3-.05 6-.05 8.93 0 2 0 4.12.08 6.17 2.21 0 4.93.14 6.84-1.24m30.4 3.54c-1.08 0-2.16 0-3.21.08l-.19-.19c-.53-2-1.05-3.91-1.64-5.82q-3.48-.09-6.89 0c-.31 1-.59 1.91-.86 2.88s-.53 1.88-.78 2.83l-.22.19c-.94 0-1.88 0-2.82.08l-.11-.19c1.19-3.44 2.38-6.9 3.54-10.34 1-3 2-5.9 2.91-8.86l.22-.19c1.14 0 2.3 0 3.44-.09h.52l.2.19c.47 1.58.94 3.16 1.44 4.74.86 2.88 1.77 5.77 2.68 8.65.64 1.94 1.27 3.9 1.88 5.82zM671 100.41l-2.91 9.33h5.57zm32.65 16.82a15.39 15.39 0 01-5.9 1.13c-4.35 0-6.73-1.69-8-3.13a10.44 10.44 0 01-2.21-6.82 13.67 13.67 0 01.33-3 9.07 9.07 0 015.87-6.85 10.58 10.58 0 013.63-.55 13 13 0 015.65 1.19l.14.19c-.11.89-.23 1.78-.31 2.66l-.22.09a8.66 8.66 0 00-5.12-1.69 6.18 6.18 0 00-4.18 1.46c-1.22 1.06-2.44 2.94-2.44 6.52 0 .8 0 4.18 2.44 6.15a6.46 6.46 0 004.4 1.38 8.16 8.16 0 002.85-.44c.06-1.36 0-2.69 0-4 0-1 0-1.94-.14-2.88l.17-.22c1 0 2.08 0 3.1-.06l.14.2c-.08 2-.11 4-.11 6v2.58zm12.54-1.23a7.36 7.36 0 01-.66-.78 11.07 11.07 0 01-2-6.89c0-1.17 0-6 3.71-8.7a8.74 8.74 0 015.38-1.63 8.55 8.55 0 015.23 1.58c3.71 2.66 3.71 7.62 3.71 8.75a11.73 11.73 0 01-2 6.87 7 7 0 01-1.52 1.5 9.73 9.73 0 01-11.89-.72m9.28-.72c2.88-2 2.8-6.59 2.8-7.12a13.42 13.42 0 00-.89-4.91 5.37 5.37 0 00-9.19-.63c-1.28 1.94-1.3 5.23-1.3 5.57a11.92 11.92 0 001 5 5.12 5.12 0 004.71 2.91 5.07 5.07 0 002.88-.8m31.77 1.95a15.45 15.45 0 01-5.9 1.13c-4.35 0-6.73-1.69-7.95-3.13a10.43 10.43 0 01-2.22-6.82 13.85 13.85 0 01.34-3 9.06 9.06 0 015.87-6.85A10.54 10.54 0 01751 98a13 13 0 015.65 1.19l.13.19c-.11.89-.22 1.78-.3 2.66l-.22.09a8.67 8.67 0 00-5.13-1.69 6.19 6.19 0 00-4.18 1.46c-1.22 1.06-2.44 2.94-2.44 6.52 0 .8 0 4.18 2.44 6.15a6.52 6.52 0 004.41 1.38 8.19 8.19 0 002.85-.44c.06-1.36 0-2.69 0-4 0-1-.06-1.94-.14-2.88l.17-.22c1 0 2.07 0 3.1-.06l.14.2c-.09 2-.11 4-.11 6v2.58zm14.42.77c-1 0-2 0-3.07.08l-.17-.2c.11-2.18.14-4.34.14-6.51 0-3 0-6-.08-9 0-1.25-.06-2.47-.14-3.71l.17-.2c1 0 2 0 3.07-.11l.17.22q-.13 5-.14 10c0 2 0 3.93.08 5.87 0 1.14.08 2.27.17 3.41zm26.2 0c-1.19 0-2.41 0-3.57.08l-.25-.17c-1.27-1.8-2.58-3.57-3.91-5.32s-2.35-3.18-3.57-4.74c0 1.81 0 3.63.06 5.43 0 1.53.08 3 .16 4.52l-.16.2c-1 0-2.05 0-3.08.08l-.14-.2c.09-2.16.11-4.29.11-6.45v-6c0-2.27-.06-4.57-.2-6.84l.17-.2c1 0 2.08 0 3.1-.08l.14.19c-.06 1.83-.11 3.63-.14 5.46v3.38c.53-.61 1-1.22 1.53-1.85.63-.81 1.27-1.61 1.88-2.42.77-.94 1.55-1.88 2.27-2.85.41-.55.83-1.11 1.22-1.66l.25-.17c1 0 2.07 0 3.13-.08l.14.22c-1.17 1.39-2.3 2.75-3.44 4.13s-2.46 3-3.65 4.49c1.43 2 2.93 3.93 4.45 5.9 1.19 1.55 2.41 3.1 3.69 4.6z"/>
<path fill="#004b93" d="M155.92 72.91c-1.35 0-2.71.06-4 .13l-.41-.4c.14-3.31.2-6.62.2-9.92 0-5.47-.13-11-.2-16.54-.07-6.82-.07-13.77-.4-20.66l.4-.41c1.69.07 3.38.07 5.06.14h8.85c2.63-.07 5.2-.07 7.83-.14l.34.41a21.9 21.9 0 00-.2 3l-.48.4c-3.71-.2-7.36-.27-11-.27h-6.21c.06 6.15.13 12.22.2 18.37h4.1c3.1-.07 6.34-.07 9.38-.27l.4.4c-.13 1-.2 2-.26 2.9l-.48.41c-2.29-.14-4.66-.07-7-.07-.81 0-1.62-.07-2.43-.07h-3.85c.07 7.5.13 14.79.47 22.21zm21.94-.27c.13-6.68.13-13.23.07-19.91a133.59 133.59 0 00-.54-13.73l.34-.34a22.39 22.39 0 004-.67l.4.4c0 1.62-.06 3.24-.06 4.8.94-2.1 2-3.85 4.18-4.93a7 7 0 012.9-.68 5.42 5.42 0 012.44.54l.27.47-.21 3.65-.4.2a6.1 6.1 0 00-3-.74 4.88 4.88 0 00-3.58 1.49c-2.36 2.22-2.5 6.75-2.5 13.36 0 3 .07 6.08.14 9.11.07 2.3.13 4.59.27 6.82l-.41.41c-1.35 0-2.63 0-4 .13zm40.65-4.8a28.63 28.63 0 00-.27 3.45l-.41.54a8.37 8.37 0 01-1.62.81 19.1 19.1 0 01-6.34 1 14.73 14.73 0 01-6.28-1.35c-8.18-4.12-8-15.25-8-16.88s-.07-9.92 5.2-14.85a11 11 0 017.56-2.9 10 10 0 016.55 2.23c4.25 3.57 4.72 9.72 4.72 14.78l-.47.34h-19.28c0 1.08-.4 9.31 4.66 13.23a9.62 9.62 0 006.42 2 11 11 0 007.05-2.67zm-3.24-16.06c0-.74.13-4.59-1.42-7.43a6.75 6.75 0 00-5.74-3.64 6.65 6.65 0 00-3.58 1.21c-2 1.49-3.85 4.46-4.39 9.86zm11.07-25.11c.07-1.42.13-2.84.13-4.19l.48-.4 4.05-.41.47.41c-.07 1.42-.14 2.76-.14 4.18l-.47.41a39.65 39.65 0 00-4.05.4zm.07 46c.2-4.93.27-9.86.27-14.79 0-3.64 0-7.22-.07-10.86 0-2.64-.07-5.34-.27-8l.41-.34c1.34-.2 2.63-.4 4-.67l.4.4c-.2 4-.33 8-.33 12 0 7.36.2 14.78.33 22.07l-.4.41a25.65 25.65 0 00-3.92.13zm34.91-4.83a28.65 28.65 0 00-.28 3.45l-.4.54a8.66 8.66 0 01-1.62.81 19.18 19.18 0 01-6.35 1 14.79 14.79 0 01-6.28-1.35c-8.17-4.12-8-15.25-8-16.88s-.07-9.92 5.19-14.85a11.08 11.08 0 017.57-2.9 10 10 0 016.55 2.23c4.25 3.57 4.72 9.72 4.72 14.78L262 55h-19.32c0 1.08-.4 9.31 4.66 13.23a9.61 9.61 0 006.41 2 11 11 0 007.09-2.64zm-3.25-16.06c0-.74.14-4.59-1.41-7.43a6.75 6.75 0 00-5.74-3.64 6.65 6.65 0 00-3.58 1.21c-2 1.49-3.85 4.46-4.39 9.86zm32.62 21.13c-1.35 0-2.64 0-4 .13l-.4-.4c.2-8.78.07-17.62 0-26.4 0-6.88-.07-13.77-.47-20.65l.47-.34c1.28 0 2.63-.07 4-.14l.41.41c0 4.12-.07 8.17-.07 12.29v7.42h6.07c4.6 0 9.05.07 13.64-.2-.13-6.41-.13-12.9-.47-19.44l.41-.34c1.35 0 2.7-.07 4.05-.14l.4.41c-.13 11.2-.06 22.34.14 33.55.07 4.45.2 8.91.33 13.43l-.4.41c-1.35 0-2.63 0-4 .13l-.41-.4c.21-8 0-16-.07-23.9-6.48-.07-13.09-.07-19.64.14-.14 7.9.27 15.79.47 23.62zm52.87-2.03a12.31 12.31 0 01-14.25.81c-3.65-2.36-6.28-7-6.28-16 0-8 2.23-12.55 5-15a11.46 11.46 0 018.16-3c6.69 0 12.36 4.73 12.63 17.55.2 8.58-2.23 13.1-5.26 15.73m-1.9-27.2a6.51 6.51 0 00-5.53-2.77 7.89 7.89 0 00-2.43.34 7.12 7.12 0 00-4.39 3.85c-1 1.82-1.89 5.26-1.89 10.26A32.2 32.2 0 00328.5 64c1.62 5.4 5.2 6.27 7.56 6.27 7.9 0 8.51-9.65 8.37-15 0-.34 0-7.76-2.77-11.54M375 72.3a15.15 15.15 0 01-6.21 1.35 12.24 12.24 0 01-10.6-5.13C354.83 63.86 355 57.58 355 56s-.07-9 4-14a11.64 11.64 0 014.18-3.31 13.87 13.87 0 015.61-1.15 13.29 13.29 0 016.09 1.46l.34.47a33.58 33.58 0 00-.34 3.58l-.47.14c-.34-.27-.54-.48-.88-.75a8.14 8.14 0 00-4.72-1.35 7.94 7.94 0 00-4.81 1.58c-2.84 2-4.53 5.94-4.53 13.16V58c.07.74.27 8.71 5.54 11.27a9.6 9.6 0 004.32.88 9 9 0 006.08-2.3l.33.21c-.13 1.21-.2 2.43-.27 3.64zm6.43.34c.21-7.56.27-15.19.34-22.75 0-4 .07-7.9.07-11.88 0-5.27-.07-10.53-.47-15.73l.4-.41c1.42-.13 2.77-.4 4.19-.6l.4.33c-.2 3.72-.33 7.5-.33 11.28-.07 3-.07 6.07-.14 9.11 1-.81 1.69-1.35 2.7-2a12.47 12.47 0 017.09-2.23 8 8 0 015.54 1.95c2.83 2.57 2.9 5.54 3 12.29v6.75c0 4.59 0 9.18.27 13.77l-.41.41c-1.28 0-2.63.07-4 .13l-.34-.4c.07-2.5.21-4.93.27-7.43.07-4.52.07-9 .07-13.63 0-3.92-.2-6-1.15-7.7a5.1 5.1 0 00-4.66-2.63c-2.16.06-5.06 1.08-8.44 4.52 0 6.28-.06 12.42 0 18.63.07 2.7.21 5.47.27 8.17l-.4.34a20.92 20.92 0 00-3.92.13zm37.28-16.2c-.95-.47-1.83-1-2.7-1.56-3.18-1.89-5-4-5-7.89a9.08 9.08 0 01.74-3.85c1.08-2.43 3.65-5.47 9.79-5.47a18.27 18.27 0 015.27.74 9.4 9.4 0 011.89.74l.2.48c-.13 1.14-.2 2.29-.27 3.51l-.47.07c-.27-.21-.41-.41-1-.81a9.85 9.85 0 00-5.53-1.63c-3.65 0-6.48 1.9-6.48 5.81 0 3.24 2.09 4.46 4.52 5.81l2.7 1.35c.81.4 1.69.87 2.5 1.35 3.31 1.89 5.33 4.45 5.33 8.37a9.74 9.74 0 01-6.77 9.54 13.57 13.57 0 01-4.38.61 22.32 22.32 0 01-6.08-.87 14.78 14.78 0 01-1.83-.75l-.33-.61c.13-1.14.2-2.36.26-3.51l.48-.13a11.42 11.42 0 007.56 2.9 9 9 0 002.77-.47 6.52 6.52 0 003.91-6.21 6 6 0 00-.53-2.63c-.88-1.82-2.7-2.84-4.39-3.72zm36.66 15.86a15.15 15.15 0 01-6.21 1.35 12.23 12.23 0 01-10.6-5.13c-3.38-4.66-3.24-10.94-3.24-12.49s-.07-9 4.05-14a11.56 11.56 0 014.18-3.31 13.87 13.87 0 015.61-1.15 13.29 13.29 0 016.07 1.43l.34.47a33.58 33.58 0 00-.34 3.58l-.47.14c-.34-.27-.54-.48-.87-.75a8.21 8.21 0 00-4.73-1.35 7.94 7.94 0 00-4.86 1.56c-2.84 2-4.53 5.94-4.53 13.16V58c.07.74.27 8.71 5.54 11.27a9.56 9.56 0 004.32.88 9 9 0 006.08-2.3l.33.21c-.13 1.21-.2 2.43-.27 3.64zm6.41.34c.21-7.56.27-15.19.34-22.75 0-4 .07-7.9.07-11.88 0-5.27-.07-10.53-.47-15.73l.4-.41c1.42-.13 2.77-.4 4.19-.6l.4.33c-.2 3.72-.33 7.5-.33 11.28-.07 3-.07 6.07-.14 9.11 1-.81 1.69-1.35 2.7-2a12.47 12.47 0 017.06-2.25 8 8 0 015.54 1.95c2.83 2.57 2.9 5.54 3 12.29v6.75c0 4.59 0 9.18.27 13.77l-.41.41c-1.28 0-2.63.07-4 .13l-.34-.4c.07-2.5.2-4.93.27-7.43.07-4.52.07-9 .07-13.63 0-3.92-.2-6-1.15-7.7a5.09 5.09 0 00-4.66-2.63c-2.16.06-5.06 1.08-8.44 4.52 0 6.28-.06 12.42 0 18.63.07 2.7.21 5.47.27 8.17l-.4.34a20.92 20.92 0 00-3.92.13zm31.94-18.03c0-5.33.13-10.53-.13-15.86l.4-.4c1.28 0 2.57-.07 3.92-.14l.34.4C498 44.42 498 50.23 498 56c-.06 1.82-.13 3.72-.13 5.6 0 .95-.34 8.58 6.35 8.58 3.44 0 5.73-1.89 8-4.19 0-6.41.07-12.82-.07-19.3-.07-2.64-.13-5.34-.27-8l.41-.4c1.28 0 2.56-.07 3.85-.14l.4.4c-.2 4.19-.2 8.44-.2 12.63 0 7.09-.07 14.17.34 21.26l-.41.41c-1.21 0-2.43.07-3.71.13l-.41-.4.14-3c-4 3.44-7.23 3.85-9.59 3.85a8.55 8.55 0 01-5.7-1.74c-3.44-2.83-3.38-7.29-3.31-11.27zm31.94 18.03c0-8.91.07-17.89.07-26.8-.07-7.83-.07-15.73-.68-23.56l.34-.41a19.76 19.76 0 004.05-.6l.4.4c-.13 12.22-.13 24.71.14 37 .07 4.6.07 9.25.34 13.84l-.34.41a20.85 20.85 0 00-3.92.13zm34.97-4.8a30.82 30.82 0 00-.27 3.45l-.4.54a8.66 8.66 0 01-1.62.81 19.18 19.18 0 01-6.35 1 14.76 14.76 0 01-6.28-1.35c-8.17-4.12-8-15.25-8-16.88s-.07-9.92 5.19-14.85a11.07 11.07 0 017.56-2.9 10 10 0 016.55 2.23c4.26 3.57 4.73 9.72 4.73 14.78l-.47.34H542c0 1.08-.41 9.31 4.66 13.23a9.61 9.61 0 006.41 2 11 11 0 007.09-2.64zm-3.24-16.06c0-.74.14-4.59-1.42-7.43a6.73 6.73 0 00-5.73-3.64 6.62 6.62 0 00-3.58 1.21c-2 1.49-3.85 4.46-4.39 9.86zm25.93 18.83c.13-1.41.27-2.77.41-4.11l.6-.14a6.66 6.66 0 001.15 1.21 11.73 11.73 0 007.77 2.84 10.5 10.5 0 004.18-.88c3.38-1.55 4.86-4.93 4.86-8.44a9.76 9.76 0 00-.74-4c-1.55-3.44-5.67-5.94-6.28-6.34l-3.1-2c-1-.74-2.1-1.42-3.11-2.16-1.89-1.35-5.61-4-5.61-10.19 0-3.92 1.83-11.95 12.56-11.95a17 17 0 018.44 2l.27.68c-.13 1.22-.27 2.5-.4 3.71l-.47.21a6.23 6.23 0 00-.68-.68 10.32 10.32 0 00-7.09-2.56 8.92 8.92 0 00-3.85.74c-4.12 1.82-4.45 6-4.45 7.36 0 4.31 2.43 6.21 5.67 8.5 2.9 2 6.55 4 9.11 6.48a13 13 0 014 9.86c0 3.91-1.35 8-4.53 10.46-1.62 1.28-4.25 2.56-8.91 2.56a20.46 20.46 0 01-8-1.68c-.47-.21-1-.54-1.48-.81zM620 59.81c.07 3.58 0 6.68.48 8a3.08 3.08 0 003.24 2.09 4.37 4.37 0 002.7-.81l.4.27a20.71 20.71 0 00-.2 2.83l-.41.55a10 10 0 01-3.71.67c-3.24 0-4.79-1.62-5.47-2.84-1-1.82-1.21-4-1.14-8.16v-3.68c.06-3.24.13-6.55.06-9.85 0-2.43-.06-4.93-.06-7.29-1.29 0-2.64 0-3.92.06l-.34-.4a18 18 0 00.2-2.63l.41-.41c1.21.07 2.5.13 3.71.13 0-2.76 0-5.53-.2-8.36l.34-.41a38.75 38.75 0 003.85-.88l.4.34c-.2 3.17-.27 6.21-.34 9.31 2.1 0 4.12-.06 6.15-.13l.34.41c-.07.87-.21 1.75-.21 2.7l-.4.4c-2-.07-3.92-.13-5.88-.13zm13.69-5.2c0-5.33.14-10.53-.14-15.86l.41-.4c1.28 0 2.57-.07 3.91-.14l.34.4c-.27 5.81-.27 11.62-.27 17.42-.07 1.82-.13 3.72-.13 5.6 0 .95-.34 8.58 6.35 8.58 3.44 0 5.74-1.89 8-4.19 0-6.41.07-12.82-.07-19.3-.07-2.64-.13-5.34-.27-8l.41-.4c1.28 0 2.56-.07 3.84-.14l.41.4c-.2 4.19-.2 8.44-.2 12.63 0 7.09-.07 14.17.34 21.26l-.41.41c-1.22 0-2.43.07-3.71.13l-.41-.4.14-3c-4 3.44-7.23 3.85-9.59 3.85a8.55 8.55 0 01-5.64-1.77c-3.45-2.83-3.38-7.29-3.31-11.27zm37.81 5.2c.07 3.58 0 6.68.47 8a3.09 3.09 0 003.24 2.09 4.4 4.4 0 002.71-.81l.4.27a20.71 20.71 0 00-.2 2.83l-.41.55a10 10 0 01-3.71.67c-3.24 0-4.79-1.62-5.47-2.84-1-1.82-1.21-4-1.15-8.16v-3.68c.07-3.24.14-6.55.07-9.85 0-2.43-.07-4.93-.07-7.29-1.28 0-2.63 0-3.91.06l-.34-.4a18 18 0 00.2-2.63l.41-.41c1.21.07 2.49.13 3.71.13 0-2.76 0-5.53-.2-8.36l.34-.41a37.93 37.93 0 003.84-.88l.41.34c-.2 3.17-.27 6.21-.34 9.31 2.09 0 4.12-.06 6.14-.13l.34.41c-.06.87-.2 1.75-.2 2.7l-.4.4c-2-.07-3.92-.13-5.88-.13zm18.03 0c.07 3.58 0 6.68.47 8a3.08 3.08 0 003.24 2.09 4.34 4.34 0 002.7-.81l.41.27a19.24 19.24 0 00-.2 2.83l-.41.55a10 10 0 01-3.71.67c-3.24 0-4.8-1.62-5.47-2.84-1-1.82-1.22-4-1.15-8.16v-3.68c.07-3.24.14-6.55.07-9.85 0-2.43-.07-4.93-.07-7.29-1.28 0-2.63 0-3.92.06l-.33-.4a18 18 0 00.2-2.63l.4-.41c1.22.07 2.5.13 3.72.13 0-2.76 0-5.53-.2-8.36l.33-.41a38.12 38.12 0 003.85-.88l.41.34c-.21 3.17-.27 6.21-.34 9.31 2.09 0 4.12-.06 6.14-.13l.34.41c-.07.87-.2 1.75-.2 2.7l-.41.4c-2-.07-3.91-.13-5.87-.13zm19.85 4.86l1.35.54c2.63 1 5.26 1.82 7.83 2.9 2.9 1.15 4.19 2 5.27 3.11a8 8 0 012.17 5.87 9.18 9.18 0 01-3.38 7.16 13.12 13.12 0 01-9 3c-1.48 0-6.89-.07-10.26-4.19a7.69 7.69 0 01-1.89-5.19c0-4.53 3.31-7.23 6.28-10a12.64 12.64 0 01-2.43-1.56l-.2-.61c.94-1.82 1.89-3.57 2.9-5.33a10.77 10.77 0 01-5.74-9.92c0-5.81 3-10.8 9.05-11.88 2.63-.47 4.72-.27 9.86-.27 1.68 0 3.37 0 5.06-.07l.34.41c-.14.94-.21 1.82-.27 2.7l-.48.4c-2-.14-4.05-.2-6.07-.27a8.13 8.13 0 011.14.74c1.42 1.15 3.25 3.78 3.25 8.17 0 6.41-4 11.07-10.74 11.07a15.38 15.38 0 01-2.57-.2c-.54 1-1.08 2-1.55 3zM705.6 77.5a5.81 5.81 0 00.81 3.17c.94 1.62 3.1 3.78 7.49 3.78a10.47 10.47 0 003.24-.54 6.64 6.64 0 004.93-6.28 5.64 5.64 0 00-3.17-5.13 68.9 68.9 0 00-8.37-3.44c-2.77 2.36-4.93 4.52-4.93 8.44m7.69-36.12a6.28 6.28 0 00-2.69.54c-2 .88-4.19 3.24-4.19 8a10.1 10.1 0 00.4 3c.88 3.11 3.24 5.61 6.69 5.61a6 6 0 004.72-2.23 9.2 9.2 0 001.9-6.62c-.21-4-2.1-8.37-6.83-8.37m35.32 8.17v-.88a14.56 14.56 0 00-.61-4.72c-.68-1.62-2.09-2.84-5.6-2.84a11.39 11.39 0 00-7.4 2.44l-.47-.27a17.86 17.86 0 00.27-3.24l.34-.54a9.49 9.49 0 011.28-.55 19.6 19.6 0 017.22-1.21c1 0 4.86-.13 7.16 2.77a8 8 0 011.48 3.1 26.6 26.6 0 01.27 4.66v11c0 1.49.07 2.91.07 4.39 0 1.89 0 3.78.07 5.67.07 1 .2 2.09.27 3.17l-.41.48c-1.14 0-2.29.06-3.51.13l-.4-.4-.07-2a11.31 11.31 0 01-7.43 2.83 8.62 8.62 0 01-7-3.17 10.88 10.88 0 01-2.5-7.42 12.05 12.05 0 011.49-6.14c2.43-4.39 7.09-5.54 11.61-6.49zm0 3.31c-1.15.21-2.23.47-3.31.75-1.69.33-9.52 1.48-9.52 9.17a10.7 10.7 0 00.61 3.45 5.64 5.64 0 005.53 4c3.58 0 5.81-2.36 6.69-3.11zm14.65 19.85c.14-6.68.14-13.23.07-19.91a133.59 133.59 0 00-.54-13.73l.33-.34a22.37 22.37 0 004-.67l.4.4c0 1.62-.06 3.24-.06 4.8.94-2.1 2-3.85 4.18-4.93a7 7 0 012.91-.68 5.4 5.4 0 012.43.54l.27.47-.25 3.67-.4.2a6.1 6.1 0 00-3-.74 4.88 4.88 0 00-3.58 1.49c-2.36 2.22-2.5 6.75-2.5 13.36 0 3 .07 6.08.14 9.11.06 2.3.13 4.59.27 6.82l-.41.41c-1.35 0-2.63 0-4 .13zm26.6-12.83c.07 3.58 0 6.68.48 8a3.08 3.08 0 003.24 2.09 4.39 4.39 0 002.7-.81l.4.27a20.71 20.71 0 00-.2 2.83l-.4.55a10.09 10.09 0 01-3.72.67c-3.24 0-4.79-1.62-5.47-2.84-1-1.82-1.21-4-1.15-8.16v-3.68c.07-3.24.14-6.55.07-9.85 0-2.43-.07-4.93-.07-7.29-1.28 0-2.63 0-3.91.06l-.34-.4a18 18 0 00.2-2.63l.41-.41c1.21.07 2.5.13 3.71.13 0-2.76 0-5.53-.2-8.36l.34-.41a38.75 38.75 0 003.85-.88l.4.34c-.2 3.17-.27 6.21-.34 9.31 2.1 0 4.12-.06 6.15-.13l.33.41c-.06.87-.2 1.75-.2 2.7l-.4.4c-2-.07-3.92-.13-5.88-.13z"/>
<path fill="#778cc1" d="M34.27 35.34c.12 1.39 9.9 3 18.23 8.23 6.5-5.06 12.43-10.5 16.25-16.38-16.86 0-34.62 6.56-34.48 8.15"/>
<path fill="#004b93" d="M52.5 43.57c6.1 3.82 11.42 9.55 11.59 18.53.2 10.31-10.36 22.78-22 28.72-1.43.83-1 2 1 1.61 28.16-7 66.18-42.26 48.41-58.35-5.68-5.08-14.1-6.88-22.76-6.89C64.93 33.07 59 38.51 52.5 43.57"/>
</g>
</svg>
