<?xml version="1.0" standalone="no"?>
<svg xmlns="http://www.w3.org/2000/svg" viewBox="0 0 295.584 29.001" width="295.584" height="29.001"><g fill="#464646" color="#464646" transform="translate(0, 0) scale(0.5370371)"><svg width="54.0" height="54.0" x="0.0" y="0.0" viewBox="0 0 54 54"><path fill="currentColor" fill-rule="evenodd" d="M40.07 38.913l-1.002-1.002a16.242 16.242 0 0 0 4.182-10.094h1.422a17.624 17.624 0 0 1-4.603 11.096zm-12.253 5.759v-1.39a16.243 16.243 0 0 0 10.097-4.212l.999 1a17.618 17.618 0 0 1-11.096 4.602zm-12.732-4.604l.969-.967a16.235 16.235 0 0 0 10.128 4.182v1.389a17.615 17.615 0 0 1-11.097-4.604zm-5.759-12.25h1.356a16.241 16.241 0 0 0 4.212 10.128l-.965.966a17.628 17.628 0 0 1-4.603-11.095zm4.603-12.732l.966.966a16.244 16.244 0 0 0-4.212 10.129H9.327a17.623 17.623 0 0 1 4.602-11.095zm12.252-5.76v1.389a16.24 16.24 0 0 0-10.127 4.182l-.969-.968a17.63 17.63 0 0 1 11.096-4.603zm12.731 4.603l-.999.998c-2.7-2.45-6.22-4.01-10.096-4.21v-1.39a17.628 17.628 0 0 1 11.095 4.602zM28.974 26.18l7.851-7.852a13.066 13.066 0 0 1 3.247 7.852H28.974zm0 1.636h11.098c-.185 3-1.377 5.727-3.247 7.852l-7.851-7.852zm-1.157 1.157l7.853 7.853a13.075 13.075 0 0 1-7.853 3.276V28.974zm-1.636 0v11.133a13.072 13.072 0 0 1-7.885-3.249l7.885-7.885zm-1.157-1.157l-7.886 7.885a13.072 13.072 0 0 1-3.28-7.885h11.166zm0-1.636H13.859a13.08 13.08 0 0 1 3.279-7.886l7.886 7.886zm1.157-1.157l-7.885-7.884a13.073 13.073 0 0 1 7.885-3.25v11.134zm1.636-11.13a13.075 13.075 0 0 1 7.853 3.277l-7.853 7.853v-11.13zm16.855 12.287H43.25a16.238 16.238 0 0 0-4.182-10.095l1.001-1a17.625 17.625 0 0 1 4.603 11.095zm8.508 0h-3.545v-.273a.818.818 0 1 0-1.636 0v.273h-1.69a19.253 19.253 0 0 0-5.083-12.252l.815-.815.193.194a.815.815 0 0 0 1.158 0 .819.819 0 0 0 0-1.157l-.194-.193 2.893-2.893a.817.817 0 1 0-1.157-1.157L42.042 10.8l-.194-.194a.819.819 0 0 0-1.157 1.157l.193.194-.814.814A19.25 19.25 0 0 0 27.818 7.69V6h.273a.818.818 0 1 0-.001-1.636h-.273V.818a.818.818 0 1 0-1.636 0v3.546h-.273a.818.818 0 1 0 0 1.636h.273v1.69a19.244 19.244 0 0 0-12.251 5.084l-.816-.816.193-.193a.819.819 0 0 0-1.157-1.157l-.193.193-2.893-2.893a.819.819 0 0 0-1.157 1.158l2.893 2.892-.192.193a.819.819 0 0 0 1.157 1.157l.192-.193.815.815A19.25 19.25 0 0 0 7.69 26.182H6.545v-.274a.818.818 0 0 0-1.637 0v.273H.818a.818.818 0 1 0 0 1.637h4.09v.273a.818.818 0 1 0 1.638 0v-.273H7.69a19.253 19.253 0 0 0 5.082 12.251l-1.201 1.2-.193-.192a.819.819 0 0 0-1.157 1.156l.193.193-2.506 2.508a.818.818 0 1 0 1.157 1.156l2.506-2.507.193.193a.817.817 0 1 0 1.157-1.156l-.193-.194 1.201-1.2a19.253 19.253 0 0 0 12.252 5.083v1.144h-.273a.818.818 0 1 0 0 1.637h.272v4.09a.819.819 0 1 0 1.637 0v-4.09h.273a.818.818 0 1 0 0-1.637h-.273V46.31a19.257 19.257 0 0 0 12.252-5.083l1.2 1.2-.193.194a.816.816 0 0 0 .578 1.396c.21 0 .419-.08.579-.24l.193-.193 2.507 2.507a.815.815 0 0 0 1.157 0 .817.817 0 0 0 0-1.156l-2.507-2.508.193-.192a.817.817 0 1 0-1.156-1.157l-.193.193-1.2-1.2a19.252 19.252 0 0 0 5.082-12.252H48v.273a.818.818 0 1 0 1.636 0v-.273h3.546a.818.818 0 1 0-.002-1.637z"></path></svg></g><line x1="41" y1="1" x2="41" y2="28.001" stroke="#000062" stroke-linecap="round"></line><path fill="#000062" fill-rule="nonzero" d="M20.54 15.38Q20.66 15.79 20.66 16.44L20.66 16.44Q19.56 16.37 17.78 16.37L17.78 16.37Q16.08 16.37 14.86 16.44L14.86 16.44Q14.86 15.86 15 15.41L15 15.41Q15.91 15.31 16.22 15.00Q16.54 14.69 16.54 13.85L16.54 13.85Q16.54 13.37 16.46 12.65L16.46 12.65L15.60 4.42L10.63 16.42Q10.22 16.58 9.65 16.58L9.65 16.58L4.06 4.44L3.29 12.14Q3.22 12.86 3.22 13.39L3.22 13.39Q3.22 14.50 3.59 14.92Q3.96 15.34 4.85 15.41L4.85 15.41Q4.97 15.82 4.97 16.44L4.97 16.44Q3.82 16.37 2.40 16.37L2.40 16.37Q0.98 16.37 0 16.44L0 16.44Q0 15.82 0.12 15.41L0.12 15.41Q0.79 15.34 1.15 15.07Q1.51 14.81 1.72 14.10Q1.92 13.39 2.06 11.93L2.06 11.93L2.83 3.38Q2.86 3.17 2.86 2.81L2.86 2.81Q2.86 1.87 2.47 1.49Q2.09 1.10 1.22 1.10L1.22 1.10Q1.10 0.72 1.10 0.07L1.10 0.07Q1.82 0.14 2.93 0.14L2.93 0.14Q3.82 0.14 4.75 0.07L4.75 0.07L10.75 13.34L15.98 0.07Q16.80 0.14 17.86 0.14L17.86 0.14Q18.72 0.14 19.68 0.07L19.68 0.07Q19.68 0.65 19.56 1.10L19.56 1.10Q18.74 1.10 18.32 1.51Q17.90 1.92 17.90 2.93L17.90 2.93Q17.90 3.31 17.93 3.53L17.93 3.53L18.79 12.34Q18.91 13.54 19.10 14.17Q19.30 14.81 19.63 15.07Q19.97 15.34 20.54 15.38L20.54 15.38ZM35.57 15.34Q35.69 15.70 35.69 16.42L35.69 16.42Q34.73 16.37 33.22 16.37L33.22 16.37Q31.63 16.37 30.67 16.42L30.67 16.42Q30.67 15.67 30.82 15.34L30.82 15.34Q31.37 15.26 31.60 15.13Q31.82 15.00 31.82 14.74L31.82 14.74Q31.82 14.52 31.58 13.99L31.58 13.99L31.10 12.96Q27.65 12.96 25.66 13.08L25.66 13.08L25.39 13.70Q25.15 14.26 25.15 14.57L25.15 14.57Q25.15 15.24 26.14 15.34L26.14 15.34Q26.28 15.77 26.28 16.42L26.28 16.42Q25.37 16.37 24.29 16.37L24.29 16.37Q23.35 16.37 22.58 16.42L22.58 16.42Q22.58 15.84 22.73 15.34L22.73 15.34Q23.26 15.24 23.54 14.89Q23.83 14.54 24.31 13.49L24.31 13.49L28.44 4.34Q28.90 4.25 29.40 4.25L29.40 4.25L33.82 13.42Q34.34 14.52 34.72 14.90Q35.09 15.29 35.57 15.34L35.57 15.34ZM26.14 11.98L30.62 11.98L29.18 8.95Q28.56 7.68 28.32 6.94L28.32 6.94Q28.13 7.54 27.85 8.12Q27.58 8.71 27.50 8.86L27.50 8.86L26.14 11.98ZM48.43 13.56Q49.08 14.52 49.76 14.92Q50.45 15.31 51.46 15.36L51.46 15.36Q51.46 16.06 51.36 16.37L51.36 16.37Q49.32 16.37 47.90 16.54L47.90 16.54Q47.74 16.25 47.26 15.53L47.26 15.53L46.18 13.78Q45.29 12.29 43.82 11.35L43.82 11.35L43.06 11.38L42.36 11.35L42.36 13.54Q42.36 14.33 42.48 14.71Q42.60 15.10 42.88 15.24Q43.15 15.38 43.73 15.41L43.73 15.41Q43.82 15.70 43.82 16.42L43.82 16.42Q42.94 16.37 41.21 16.37L41.21 16.37Q39.94 16.37 38.59 16.42L38.59 16.42Q38.59 15.74 38.71 15.41L38.71 15.41Q39.31 15.36 39.61 15.22Q39.91 15.07 40.03 14.71Q40.15 14.35 40.15 13.63L40.15 13.63L40.15 7.13Q40.15 6.10 39.86 5.76Q39.58 5.42 38.71 5.38L38.71 5.38Q38.59 5.02 38.59 4.32L38.59 4.32Q39.50 4.37 41.23 4.37L41.23 4.37L42.96 4.34Q44.21 4.30 44.86 4.30L44.86 4.30Q47.16 4.30 48.34 5.18Q49.51 6.07 49.51 7.46L49.51 7.46Q49.51 8.86 48.62 9.76Q47.74 10.66 46.15 10.97L46.15 10.97Q46.75 11.33 47.15 11.80Q47.54 12.26 48.43 13.56L48.43 13.56ZM43.27 10.18Q45 10.18 46.10 9.56Q47.21 8.95 47.21 7.78L47.21 7.78Q47.21 5.33 43.85 5.33L43.85 5.33Q43.08 5.33 42.36 5.47L42.36 5.47L42.36 10.10Q42.86 10.18 43.27 10.18L43.27 10.18ZM54.38 16.42Q54.38 15.67 54.50 15.34L54.50 15.34Q55.10 15.29 55.40 15.14Q55.70 15.00 55.82 14.64Q55.94 14.28 55.94 13.56L55.94 13.56L55.94 7.15Q55.94 6.46 55.82 6.10Q55.70 5.74 55.40 5.59Q55.10 5.45 54.50 5.40L54.50 5.40Q54.38 5.04 54.38 4.32L54.38 4.32Q55.92 4.37 57.07 4.37L57.07 4.37Q58.03 4.37 59.71 4.32L59.71 4.32Q59.71 5.06 59.62 5.40L59.62 5.40Q58.75 5.45 58.45 5.78Q58.15 6.12 58.15 7.15L58.15 7.15L58.15 13.56Q58.15 14.59 58.45 14.94Q58.75 15.29 59.62 15.34L59.62 15.34Q59.71 15.70 59.71 16.42L59.71 16.42Q58.08 16.37 57.07 16.37L57.07 16.37Q55.87 16.37 54.38 16.42L54.38 16.42ZM74.02 4.32Q73.94 5.62 74.18 7.44L74.18 7.44Q73.68 7.66 73.01 7.66L73.01 7.66Q72.96 6.50 72.40 5.95Q71.83 5.40 70.63 5.40L70.63 5.40L69.58 5.40L69.58 13.63Q69.58 14.38 69.71 14.72Q69.84 15.07 70.19 15.22Q70.54 15.36 71.26 15.41L71.26 15.41Q71.38 15.70 71.38 16.42L71.38 16.42Q69.60 16.37 68.47 16.37L68.47 16.37Q67.08 16.37 65.50 16.42L65.50 16.42Q65.50 15.70 65.62 15.41L65.62 15.41Q66.34 15.36 66.71 15.22Q67.08 15.07 67.22 14.71Q67.37 14.35 67.37 13.63L67.37 13.63L67.37 5.40L66.38 5.40Q65.42 5.40 64.91 5.65Q64.39 5.90 64.15 6.36Q63.91 6.82 63.74 7.66L63.74 7.66Q62.98 7.66 62.62 7.44L62.62 7.44Q62.98 5.81 62.98 4.32L62.98 4.32Q64.22 4.37 68.47 4.37L68.47 4.37Q72.79 4.37 74.02 4.32L74.02 4.32ZM77.11 16.42Q77.11 15.67 77.23 15.34L77.23 15.34Q77.83 15.29 78.13 15.14Q78.43 15.00 78.55 14.64Q78.67 14.28 78.67 13.56L78.67 13.56L78.67 7.15Q78.67 6.46 78.55 6.10Q78.43 5.74 78.13 5.59Q77.83 5.45 77.23 5.40L77.23 5.40Q77.11 5.04 77.11 4.32L77.11 4.32Q78.65 4.37 79.80 4.37L79.80 4.37Q80.76 4.37 82.44 4.32L82.44 4.32Q82.44 5.06 82.34 5.40L82.34 5.40Q81.48 5.45 81.18 5.78Q80.88 6.12 80.88 7.15L80.88 7.15L80.88 13.56Q80.88 14.59 81.18 14.94Q81.48 15.29 82.34 15.34L82.34 15.34Q82.44 15.70 82.44 16.42L82.44 16.42Q80.81 16.37 79.80 16.37L79.80 16.37Q78.60 16.37 77.11 16.42L77.11 16.42ZM103.42 15.41Q103.54 15.79 103.54 16.42L103.54 16.42Q102.24 16.37 100.85 16.37L100.85 16.37Q99.60 16.37 98.21 16.42L98.21 16.42Q98.21 15.94 98.33 15.41L98.33 15.41Q99.12 15.34 99.41 15.11Q99.70 14.88 99.70 14.23L99.70 14.23Q99.70 14.06 99.60 13.20L99.60 13.20L98.86 7.49L94.58 16.06Q94.20 16.20 93.65 16.20L93.65 16.20L89.21 7.54L88.54 12.60Q88.46 13.25 88.46 13.70L88.46 13.70Q88.46 14.64 88.79 15.00Q89.11 15.36 89.90 15.41L89.90 15.41Q90.02 15.79 90.02 16.42L90.02 16.42Q88.73 16.37 87.74 16.37L87.74 16.37Q86.69 16.37 85.58 16.42L85.58 16.42Q85.58 15.79 85.70 15.41L85.70 15.41Q86.28 15.36 86.60 15.12Q86.93 14.88 87.11 14.29Q87.29 13.70 87.41 12.55L87.41 12.55L88.08 7.27Q88.10 7.10 88.10 6.79L88.10 6.79Q88.10 5.98 87.78 5.69Q87.46 5.40 86.66 5.40L86.66 5.40Q86.54 4.97 86.54 4.32L86.54 4.32Q87.46 4.37 88.30 4.37L88.30 4.37Q88.97 4.37 90.02 4.32L90.02 4.32L94.70 13.32L99.14 4.32Q100.20 4.37 100.94 4.37L100.94 4.37Q101.52 4.37 102.67 4.32L102.67 4.32Q102.67 5.02 102.55 5.40L102.55 5.40Q101.83 5.40 101.47 5.72Q101.11 6.05 101.11 6.82L101.11 6.82Q101.11 7.13 101.14 7.32L101.14 7.32L101.88 12.98Q102.02 14.02 102.18 14.50Q102.34 14.98 102.61 15.17Q102.89 15.36 103.42 15.41L103.42 15.41ZM116.47 12.96Q117.12 13.08 117.53 13.49L117.53 13.49Q117.10 14.62 116.88 16.39L116.88 16.39L112.25 16.37Q108.79 16.37 106.68 16.42L106.68 16.42Q106.68 15.67 106.80 15.34L106.80 15.34Q107.40 15.29 107.70 15.14Q108 15.00 108.12 14.62Q108.24 14.23 108.24 13.46L108.24 13.46L108.24 7.15Q108.24 6.46 108.11 6.10Q107.98 5.74 107.68 5.59Q107.38 5.45 106.80 5.40L106.80 5.40Q106.68 5.04 106.68 4.32L106.68 4.32Q108.41 4.37 110.45 4.37L110.45 4.37Q114.86 4.37 116.35 4.32L116.35 4.32Q116.62 6.58 116.81 7.30L116.81 7.30Q116.40 7.56 115.73 7.56L115.73 7.56Q115.63 6.55 114.90 5.98Q114.17 5.40 112.32 5.40L112.32 5.40L110.45 5.40L110.45 9.82L111.65 9.82Q112.92 9.82 113.41 9.53Q113.90 9.24 113.93 8.47L113.93 8.47Q114.46 8.30 115.03 8.30L115.03 8.30Q114.98 8.90 114.98 10.32L114.98 10.32Q114.98 11.86 115.03 12.41L115.03 12.41Q114.38 12.41 113.98 12.26L113.98 12.26Q113.90 11.47 113.41 11.18Q112.92 10.90 111.65 10.90L111.65 10.90L110.45 10.90L110.45 13.42Q110.45 14.18 110.60 14.58Q110.76 14.98 111.16 15.13Q111.55 15.29 112.34 15.29L112.34 15.29L112.49 15.29Q113.88 15.29 114.64 15.05Q115.39 14.81 115.76 14.34Q116.14 13.87 116.47 12.96L116.47 12.96ZM139.94 15.41Q140.09 15.89 140.09 16.44L140.09 16.44Q138.65 16.37 137.35 16.37L137.35 16.37Q136.08 16.37 134.64 16.44L134.64 16.44Q134.64 15.74 134.81 15.41L134.81 15.41Q135.48 15.34 135.76 15.19Q136.03 15.05 136.03 14.71L136.03 14.71Q136.03 14.42 135.67 13.54L135.67 13.54L134.62 11.09Q130.80 11.09 128.28 11.18L128.28 11.18L127.63 12.84Q127.25 13.85 127.25 14.42L127.25 14.42Q127.25 14.90 127.55 15.13Q127.85 15.36 128.50 15.41L128.50 15.41Q128.66 15.82 128.66 16.44L128.66 16.44Q127.85 16.37 126.38 16.37L126.38 16.37Q125.76 16.37 124.39 16.44L124.39 16.44Q124.39 15.84 124.56 15.43L124.56 15.43Q125.18 15.31 125.54 14.81Q125.90 14.30 126.48 12.84L126.48 12.84L131.45 0.10Q131.86 0 132.38 0L132.38 0L138.10 13.10Q138.70 14.45 139.04 14.88Q139.39 15.31 139.94 15.41L139.94 15.41ZM128.71 10.01L134.16 10.01L132.34 5.74Q131.62 4.08 131.28 3.12L131.28 3.12Q131.02 3.94 130.37 5.71L130.37 5.71L128.71 10.01ZM151.94 13.42Q152.64 14.18 153.53 14.74Q154.42 15.29 155.23 15.34L155.23 15.34Q155.23 16.01 155.11 16.37L155.11 16.37Q153.05 16.37 151.80 16.51L151.80 16.51Q150.91 15.38 149.33 13.70Q147.74 12.02 146.28 10.66L146.28 10.66L146.28 13.56Q146.28 14.59 146.58 14.94Q146.88 15.29 147.74 15.34L147.74 15.34Q147.84 15.70 147.84 16.42L147.84 16.42Q146.21 16.37 145.20 16.37L145.20 16.37Q144 16.37 142.51 16.42L142.51 16.42Q142.51 15.67 142.63 15.34L142.63 15.34Q143.23 15.29 143.53 15.14Q143.83 15.00 143.95 14.64Q144.07 14.28 144.07 13.56L144.07 13.56L144.07 7.15Q144.07 6.46 143.95 6.10Q143.83 5.74 143.53 5.59Q143.23 5.45 142.63 5.40L142.63 5.40Q142.51 5.04 142.51 4.32L142.51 4.32Q144.05 4.37 145.20 4.37L145.20 4.37Q146.16 4.37 147.84 4.32L147.84 4.32Q147.84 5.06 147.74 5.40L147.74 5.40Q146.88 5.45 146.58 5.78Q146.28 6.12 146.28 7.15L146.28 7.15L146.28 10.08L150.02 7.03Q151.03 6.22 151.03 5.81L151.03 5.81Q151.03 5.45 150.31 5.40L150.31 5.40Q150.19 5.02 150.19 4.32L150.19 4.32Q151.15 4.37 152.40 4.37L152.40 4.37Q153.53 4.37 154.68 4.32L154.68 4.32Q154.68 4.99 154.54 5.40L154.54 5.40Q153.82 5.42 153.18 5.74Q152.54 6.05 151.51 6.82L151.51 6.82L148.27 9.58Q149.83 11.06 151.94 13.42L151.94 13.42ZM170.30 15.34Q170.42 15.70 170.42 16.42L170.42 16.42Q169.46 16.37 167.95 16.37L167.95 16.37Q166.37 16.37 165.41 16.42L165.41 16.42Q165.41 15.67 165.55 15.34L165.55 15.34Q166.10 15.26 166.33 15.13Q166.56 15.00 166.56 14.74L166.56 14.74Q166.56 14.52 166.32 13.99L166.32 13.99L165.84 12.96Q162.38 12.96 160.39 13.08L160.39 13.08L160.13 13.70Q159.89 14.26 159.89 14.57L159.89 14.57Q159.89 15.24 160.87 15.34L160.87 15.34Q161.02 15.77 161.02 16.42L161.02 16.42Q160.10 16.37 159.02 16.37L159.02 16.37Q158.09 16.37 157.32 16.42L157.32 16.42Q157.32 15.84 157.46 15.34L157.46 15.34Q157.99 15.24 158.28 14.89Q158.57 14.54 159.05 13.49L159.05 13.49L163.18 4.34Q163.63 4.25 164.14 4.25L164.14 4.25L168.55 13.42Q169.08 14.52 169.45 14.90Q169.82 15.29 170.30 15.34L170.30 15.34ZM160.87 11.98L165.36 11.98L163.92 8.95Q163.30 7.68 163.06 6.94L163.06 6.94Q162.86 7.54 162.59 8.12Q162.31 8.71 162.24 8.86L162.24 8.86L160.87 11.98ZM173.33 16.42Q173.33 15.67 173.45 15.34L173.45 15.34Q174.02 15.29 174.34 15.14Q174.65 15.00 174.78 14.62Q174.91 14.23 174.91 13.46L174.91 13.46L174.91 7.15Q174.91 6.46 174.78 6.10Q174.65 5.74 174.35 5.59Q174.05 5.45 173.45 5.40L173.45 5.40Q173.35 5.02 173.35 4.32L173.35 4.32Q174.70 4.37 176.45 4.37L176.45 4.37Q177.24 4.37 177.65 4.34L177.65 4.34L178.92 4.32Q182.40 4.32 184.64 5.54Q186.89 6.77 186.89 10.06L186.89 10.06Q186.89 13.80 184.34 15.08Q181.80 16.37 178.90 16.37L178.90 16.37Q175.44 16.37 173.33 16.42L173.33 16.42ZM178.99 15.29Q180.72 15.29 181.91 14.89Q183.10 14.50 183.80 13.42Q184.51 12.34 184.51 10.37L184.51 10.37Q184.51 7.70 182.84 6.53Q181.18 5.35 178.61 5.35L178.61 5.35Q177.62 5.35 177.12 5.50L177.12 5.50L177.12 13.42Q177.12 14.18 177.26 14.58Q177.41 14.98 177.80 15.13Q178.20 15.29 178.99 15.29L178.99 15.29ZM199.82 12.96Q200.47 13.08 200.88 13.49L200.88 13.49Q200.45 14.62 200.23 16.39L200.23 16.39L195.60 16.37Q192.14 16.37 190.03 16.42L190.03 16.42Q190.03 15.67 190.15 15.34L190.15 15.34Q190.75 15.29 191.05 15.14Q191.35 15.00 191.47 14.62Q191.59 14.23 191.59 13.46L191.59 13.46L191.59 7.15Q191.59 6.46 191.46 6.10Q191.33 5.74 191.03 5.59Q190.73 5.45 190.15 5.40L190.15 5.40Q190.03 5.04 190.03 4.32L190.03 4.32Q191.76 4.37 193.80 4.37L193.80 4.37Q198.22 4.37 199.70 4.32L199.70 4.32Q199.97 6.58 200.16 7.30L200.16 7.30Q199.75 7.56 199.08 7.56L199.08 7.56Q198.98 6.55 198.25 5.98Q197.52 5.40 195.67 5.40L195.67 5.40L193.80 5.40L193.80 9.82L195 9.82Q196.27 9.82 196.76 9.53Q197.26 9.24 197.28 8.47L197.28 8.47Q197.81 8.30 198.38 8.30L198.38 8.30Q198.34 8.90 198.34 10.32L198.34 10.32Q198.34 11.86 198.38 12.41L198.38 12.41Q197.74 12.41 197.33 12.26L197.33 12.26Q197.26 11.47 196.76 11.18Q196.27 10.90 195 10.90L195 10.90L193.80 10.90L193.80 13.42Q193.80 14.18 193.96 14.58Q194.11 14.98 194.51 15.13Q194.90 15.29 195.70 15.29L195.70 15.29L195.84 15.29Q197.23 15.29 197.99 15.05Q198.74 14.81 199.12 14.34Q199.49 13.87 199.82 12.96L199.82 12.96ZM221.50 15.41Q221.62 15.79 221.62 16.42L221.62 16.42Q220.32 16.37 218.93 16.37L218.93 16.37Q217.68 16.37 216.29 16.42L216.29 16.42Q216.29 15.94 216.41 15.41L216.41 15.41Q217.20 15.34 217.49 15.11Q217.78 14.88 217.78 14.23L217.78 14.23Q217.78 14.06 217.68 13.20L217.68 13.20L216.94 7.49L212.66 16.06Q212.28 16.20 211.73 16.20L211.73 16.20L207.29 7.54L206.62 12.60Q206.54 13.25 206.54 13.70L206.54 13.70Q206.54 14.64 206.87 15.00Q207.19 15.36 207.98 15.41L207.98 15.41Q208.10 15.79 208.10 16.42L208.10 16.42Q206.81 16.37 205.82 16.37L205.82 16.37Q204.77 16.37 203.66 16.42L203.66 16.42Q203.66 15.79 203.78 15.41L203.78 15.41Q204.36 15.36 204.68 15.12Q205.01 14.88 205.19 14.29Q205.37 13.70 205.49 12.55L205.49 12.55L206.16 7.27Q206.18 7.10 206.18 6.79L206.18 6.79Q206.18 5.98 205.86 5.69Q205.54 5.40 204.74 5.40L204.74 5.40Q204.62 4.97 204.62 4.32L204.62 4.32Q205.54 4.37 206.38 4.37L206.38 4.37Q207.05 4.37 208.10 4.32L208.10 4.32L212.78 13.32L217.22 4.32Q218.28 4.37 219.02 4.37L219.02 4.37Q219.60 4.37 220.75 4.32L220.75 4.32Q220.75 5.02 220.63 5.40L220.63 5.40Q219.91 5.40 219.55 5.72Q219.19 6.05 219.19 6.82L219.19 6.82Q219.19 7.13 219.22 7.32L219.22 7.32L219.96 12.98Q220.10 14.02 220.26 14.50Q220.42 14.98 220.69 15.17Q220.97 15.36 221.50 15.41L221.50 15.41ZM224.76 16.42Q224.76 15.67 224.88 15.34L224.88 15.34Q225.48 15.29 225.78 15.14Q226.08 15.00 226.20 14.64Q226.32 14.28 226.32 13.56L226.32 13.56L226.32 7.15Q226.32 6.46 226.20 6.10Q226.08 5.74 225.78 5.59Q225.48 5.45 224.88 5.40L224.88 5.40Q224.76 5.04 224.76 4.32L224.76 4.32Q226.30 4.37 227.45 4.37L227.45 4.37Q228.41 4.37 230.09 4.32L230.09 4.32Q230.09 5.06 229.99 5.40L229.99 5.40Q229.13 5.45 228.83 5.78Q228.53 6.12 228.53 7.15L228.53 7.15L228.53 13.56Q228.53 14.59 228.83 14.94Q229.13 15.29 229.99 15.34L229.99 15.34Q230.09 15.70 230.09 16.42L230.09 16.42Q228.46 16.37 227.45 16.37L227.45 16.37Q226.25 16.37 224.76 16.42L224.76 16.42ZM243.53 12.96Q244.18 13.08 244.58 13.49L244.58 13.49Q244.15 14.62 243.94 16.39L243.94 16.39L239.30 16.37Q235.85 16.37 233.74 16.42L233.74 16.42Q233.74 15.67 233.86 15.34L233.86 15.34Q234.46 15.29 234.76 15.14Q235.06 15.00 235.18 14.62Q235.30 14.23 235.30 13.46L235.30 13.46L235.30 7.15Q235.30 6.46 235.16 6.10Q235.03 5.74 234.73 5.59Q234.43 5.45 233.86 5.40L233.86 5.40Q233.74 5.04 233.74 4.32L233.74 4.32Q235.46 4.37 237.50 4.37L237.50 4.37Q241.92 4.37 243.41 4.32L243.41 4.32Q243.67 6.58 243.86 7.30L243.86 7.30Q243.46 7.56 242.78 7.56L242.78 7.56Q242.69 6.55 241.96 5.98Q241.22 5.40 239.38 5.40L239.38 5.40L237.50 5.40L237.50 9.82L238.70 9.82Q239.98 9.82 240.47 9.53Q240.96 9.24 240.98 8.47L240.98 8.47Q241.51 8.30 242.09 8.30L242.09 8.30Q242.04 8.90 242.04 10.32L242.04 10.32Q242.04 11.86 242.09 12.41L242.09 12.41Q241.44 12.41 241.03 12.26L241.03 12.26Q240.96 11.47 240.47 11.18Q239.98 10.90 238.70 10.90L238.70 10.90L237.50 10.90L237.50 13.42Q237.50 14.18 237.66 14.58Q237.82 14.98 238.21 15.13Q238.61 15.29 239.40 15.29L239.40 15.29L239.54 15.29Q240.94 15.29 241.69 15.05Q242.45 14.81 242.82 14.34Q243.19 13.87 243.53 12.96L243.53 12.96Z" transform="translate(51, 6.208)"></path></svg>